<svg viewBox="0 0 36 36" xmlns="http://www.w3.org/2000/svg" xmlns:xlink="http://www.w3.org/1999/xlink" width="36.000000" height="36.000000" fill="none" customFrame="#000000">
	<g id="Group 7">
		<path id="Vector" d="M17 34C7.61116 34 0 26.3888 0 17C0 7.61116 7.61116 0 17 0C26.3888 0 34 7.61116 34 17C34 26.3888 26.3888 34 17 34Z" stroke="rgb(255,255,255)" stroke-linecap="round" stroke-linejoin="round" stroke-width="2" transform="matrix(-1,-8.74228e-08,8.74228e-08,-1,35,35)" />
		<path id="Vector" d="M6.8 0L0 6.8L6.8 13.6" fill-rule="nonzero" stroke="rgb(255,255,255)" stroke-linecap="round" stroke-linejoin="round" stroke-width="2" transform="matrix(-1,-8.74228e-08,8.74228e-08,-1,24.8,24.8)" />
		<path id="Vector" d="M13.6 0L0 0" stroke="rgb(255,255,255)" stroke-linecap="round" stroke-linejoin="round" stroke-width="2" transform="matrix(-1,-8.74228e-08,8.74228e-08,-1,24.8,18)" />
	</g>
</svg>
